<svg width="255" height="145" viewBox="0 0 255 145" fill="none" xmlns="http://www.w3.org/2000/svg">
<g clip-path="url(#clip0_20_6338)">
<rect x="1.67151" width="252.43" height="141.992" rx="3.94421" transform="rotate(0.674492 1.67151 0)" fill="#3563E9"/>
<path d="M-1.29898 118.3L-10.8802 94.5198L-1.0204 94.6359L8.83945 94.752L18.4207 118.532L8.28228 142.079L-1.57757 141.963L-11.4374 141.847L-1.29898 118.3Z" fill="white" fill-opacity="0.06"/>
<path d="M34.5908 118.722L25.0095 94.9424L34.8694 95.0585L44.7292 95.1745L54.3105 118.954L44.1721 142.502L34.3122 142.386L24.4524 142.27L34.5908 118.722Z" fill="white" fill-opacity="0.06"/>
<path d="M70.4807 119.145L60.8994 95.3649L70.7593 95.4809L80.6191 95.597L90.2004 119.377L80.0619 142.924L70.2021 142.808L60.3422 142.692L70.4807 119.145Z" fill="white" fill-opacity="0.06"/>
<path d="M106.371 119.567L96.7893 95.7874L106.649 95.9035L116.509 96.0196L126.09 119.799L115.952 143.347L106.092 143.231L96.2321 143.115L106.371 119.567Z" fill="white" fill-opacity="0.06"/>
<path d="M142.26 119.99L132.679 96.2099L142.539 96.326L152.399 96.4421L161.98 120.222L151.842 143.769L141.982 143.653L132.122 143.537L142.26 119.99Z" fill="white" fill-opacity="0.06"/>
<path d="M178.15 120.412L168.569 96.6324L178.429 96.7485L188.289 96.8646L197.87 120.644L187.732 144.192L177.872 144.076L168.012 143.96L178.15 120.412Z" fill="white" fill-opacity="0.06"/>
<path d="M214.04 120.835L204.459 97.055L214.319 97.1711L224.178 97.2871L233.76 121.067L223.621 144.614L213.761 144.498L203.902 144.382L214.04 120.835Z" fill="white" fill-opacity="0.06"/>
<path d="M249.93 121.257L240.349 97.4775L250.208 97.5936L260.068 97.7096L269.65 121.489L259.511 145.037L249.651 144.921L239.791 144.805L249.93 121.257Z" fill="white" fill-opacity="0.06"/>
<path d="M17.0058 71.1813L7.42456 47.4016L17.2844 47.5177L27.1443 47.6338L36.7255 71.4135L26.5871 94.961L16.7272 94.845L6.86739 94.7289L17.0058 71.1813Z" fill="white" fill-opacity="0.06"/>
<path d="M52.8957 71.6037L43.3145 47.824L53.1743 47.9401L63.0342 48.0562L72.6154 71.8359L62.477 95.3835L52.6171 95.2674L42.7573 95.1513L52.8957 71.6037Z" fill="white" fill-opacity="0.06"/>
<path d="M88.7856 72.0263L79.2043 48.2466L89.0642 48.3627L98.924 48.4787L108.505 72.2584L98.3669 95.806L88.507 95.6899L78.6472 95.5739L88.7856 72.0263Z" fill="white" fill-opacity="0.06"/>
<path d="M124.675 72.4488L115.094 48.6691L124.954 48.7852L134.814 48.9013L144.395 72.681L134.257 96.2286L124.397 96.1125L114.537 95.9964L124.675 72.4488Z" fill="white" fill-opacity="0.06"/>
<path d="M160.565 72.8713L150.984 49.0916L160.844 49.2077L170.704 49.3238L180.285 73.1035L170.147 96.651L160.287 96.535L150.427 96.4189L160.565 72.8713Z" fill="white" fill-opacity="0.06"/>
<path d="M196.455 73.2939L186.874 49.5142L196.734 49.6302L206.593 49.7463L216.175 73.526L206.036 97.0736L196.176 96.9575L186.317 96.8414L196.455 73.2939Z" fill="white" fill-opacity="0.06"/>
<path d="M232.345 73.7164L222.764 49.9366L232.624 50.0527L242.483 50.1688L252.065 73.9485L241.926 97.4961L232.066 97.38L222.207 97.2639L232.345 73.7164Z" fill="white" fill-opacity="0.06"/>
<path d="M-0.579135 23.6404L-10.1604 -0.139343L-0.300551 -0.0232666L9.5593 0.09281L19.1406 23.8725L9.00213 47.4201L-0.857719 47.304L-10.7176 47.1879L-0.579135 23.6404Z" fill="white" fill-opacity="0.06"/>
<path d="M35.3108 24.0629L25.7295 0.283203L35.5893 0.39928L45.4492 0.515356L55.0305 24.2951L44.892 47.8426L35.0322 47.7266L25.1723 47.6105L35.3108 24.0629Z" fill="white" fill-opacity="0.06"/>
<path d="M71.2007 24.4855L61.6194 0.70575L71.4792 0.821826L81.3391 0.937903L90.9203 24.7176L80.7819 48.2652L70.9221 48.1491L61.0622 48.033L71.2007 24.4855Z" fill="white" fill-opacity="0.06"/>
<path d="M107.09 24.9079L97.5092 1.12823L107.369 1.24431L117.229 1.36039L126.81 25.1401L116.672 48.6877L106.812 48.5716L96.952 48.4555L107.09 24.9079Z" fill="white" fill-opacity="0.06"/>
<path d="M142.98 25.3305L133.399 1.55078L143.259 1.66686L153.119 1.78293L162.7 25.5626L152.562 49.1102L142.702 48.9941L132.842 48.8781L142.98 25.3305Z" fill="white" fill-opacity="0.06"/>
<path d="M178.87 25.753L169.289 1.97327L179.149 2.08934L189.009 2.20542L198.59 25.9851L188.451 49.5327L178.592 49.4166L168.732 49.3005L178.87 25.753Z" fill="white" fill-opacity="0.06"/>
<path d="M214.76 26.1755L205.179 2.39581L215.039 2.51189L224.899 2.62797L234.48 26.4077L224.341 49.9552L214.482 49.8392L204.622 49.7231L214.76 26.1755Z" fill="white" fill-opacity="0.06"/>
<path d="M250.65 26.5981L241.069 2.81836L250.928 2.93444L260.788 3.05051L270.37 26.8302L260.231 50.3778L250.371 50.2617L240.511 50.1456L250.65 26.5981Z" fill="white" fill-opacity="0.06"/>
</g>
<defs>
<clipPath id="clip0_20_6338">
<rect x="1.67151" width="252.43" height="141.992" rx="3.94421" transform="rotate(0.674492 1.67151 0)" fill="white"/>
</clipPath>
</defs>
</svg>
