<svg width="255" height="146" viewBox="0 0 255 146" fill="none" xmlns="http://www.w3.org/2000/svg">
<g clip-path="url(#clip0_20_6322)">
<rect x="1.8302" y="0.668823" width="252.43" height="141.992" rx="3.94421" transform="rotate(0.674492 1.8302 0.668823)" fill="#5CAFFC"/>
<circle cx="91.1246" cy="122.027" r="9.86053" transform="rotate(0.674492 91.1246 122.027)" stroke="white" stroke-opacity="0.06" stroke-width="3.94421"/>
<circle cx="91.1246" cy="122.027" r="29.5816" transform="rotate(0.674492 91.1246 122.027)" stroke="white" stroke-opacity="0.06" stroke-width="7.88843"/>
<circle cx="91.3241" cy="121.832" r="54.2329" transform="rotate(0.674492 91.3241 121.832)" stroke="white" stroke-opacity="0.06" stroke-width="7.88843"/>
<circle cx="91.1246" cy="122.027" r="78.8843" transform="rotate(0.674492 91.1246 122.027)" stroke="white" stroke-opacity="0.06" stroke-width="7.88843"/>
<circle cx="91.3241" cy="121.832" r="103.536" transform="rotate(0.674492 91.3241 121.832)" stroke="white" stroke-opacity="0.06" stroke-width="7.88843"/>
<circle cx="91.1246" cy="122.027" r="128.187" transform="rotate(0.674492 91.1246 122.027)" stroke="white" stroke-opacity="0.06" stroke-width="7.88843"/>
<circle cx="91.3241" cy="121.832" r="152.838" transform="rotate(0.674492 91.3241 121.832)" stroke="white" stroke-opacity="0.06" stroke-width="7.88843"/>
</g>
<defs>
<clipPath id="clip0_20_6322">
<rect x="1.8302" y="0.668823" width="252.43" height="141.992" rx="3.94421" transform="rotate(0.674492 1.8302 0.668823)" fill="white"/>
</clipPath>
</defs>
</svg>
