<svg width="11" height="11" viewBox="0 0 11 11" fill="none" xmlns="http://www.w3.org/2000/svg">
<path d="M9.69144 3.57443L7.32507 3.54657" stroke="#3D5278" stroke-width="0.591632" stroke-miterlimit="10" stroke-linecap="round" stroke-linejoin="round"/>
<path d="M3.38116 3.50008L1.80359 3.48151" stroke="#3D5278" stroke-width="0.591632" stroke-miterlimit="10" stroke-linecap="round" stroke-linejoin="round"/>
<path d="M4.94248 4.89908C5.70484 4.90805 6.33014 4.29731 6.33911 3.53495C6.34809 2.77259 5.73735 2.1473 4.97498 2.13832C4.21262 2.12935 3.58733 2.74009 3.57835 3.50245C3.56938 4.26481 4.18012 4.8901 4.94248 4.89908Z" stroke="#3D5278" stroke-width="0.591632" stroke-miterlimit="10" stroke-linecap="round" stroke-linejoin="round"/>
<path d="M9.64032 7.91274L8.06274 7.89417" stroke="#3D5278" stroke-width="0.591632" stroke-miterlimit="10" stroke-linecap="round" stroke-linejoin="round"/>
<path d="M4.11881 7.84774L1.75244 7.81989" stroke="#3D5278" stroke-width="0.591632" stroke-miterlimit="10" stroke-linecap="round" stroke-linejoin="round"/>
<path d="M6.46897 9.25595C7.23133 9.26493 7.85663 8.65419 7.8656 7.89182C7.87458 7.12946 7.26383 6.50417 6.50147 6.49519C5.73911 6.48622 5.11382 7.09696 5.10484 7.85932C5.09587 8.62168 5.70661 9.24698 6.46897 9.25595Z" stroke="#3D5278" stroke-width="0.591632" stroke-miterlimit="10" stroke-linecap="round" stroke-linejoin="round"/>
</svg>
